<svg xmlns="http://www.w3.org/2000/svg" viewBox="0 0 24 24" fill="none" stroke="#fff" stroke-width="1.5" stroke-linecap="round" stroke-linejoin="round">
  <defs>
    <linearGradient id="g" x1="0%" y1="0%" x2="100%" y2="100%">
      <stop offset="0%" stop-color="#06b6d4"/>
      <stop offset="100%" stop-color="#22d3ee"/>
    </linearGradient>
  </defs>
  <rect width="24" height="24" rx="6" fill="url(#g)"/>
  <g transform="translate(1, 1)">
    <path d="M12 2a3 3 0 0 0-3 3c0 .9.4 1.7 1 2.2V12h-2a2 2 0 0 0-2 2v2a2 2 0 0 0 2 2h8a2 2 0 0 0 2-2v-2a2 2 0 0 0-2-2h-2V7.2c.6-.5 1-1.3 1-2.2a3 3 0 0 0-3-3z"/>
  </g>
</svg>