<svg xmlns="http://www.w3.org/2000/svg" viewBox="0 0 24 24" fill="none" stroke="#fff" stroke-width="1.5" stroke-linecap="round" stroke-linejoin="round">
  <defs>
    <linearGradient id="g" x1="0%" y1="0%" x2="100%" y2="100%">
      <stop offset="0%" stop-color="#8b5cf6"/>
      <stop offset="100%" stop-color="#a855f7"/>
    </linearGradient>
  </defs>
  <rect width="24" height="24" rx="6" fill="url(#g)"/>
  <g transform="translate(1, 1)">
    <path d="M12 2a3 3 0 0 0-3 3v1H6a2 2 0 0 0-2 2v3a2 2 0 0 0 2 2h3v1a3 3 0 0 0 6 0v-1h3a2 2 0 0 0 2-2V8a2 2 0 0 0-2-2h-3V5a3 3 0 0 0-3-3z"/>
  </g>
</svg>